<svg width="144" height="144" viewBox="0 0 144 144" fill="none" xmlns="http://www.w3.org/2000/svg">
<rect width="144" height="144" rx="16" fill="#C64500"/>
<path d="M62.5003 108C63.956 108 66.2857 108.36 68.5619 108.8C72.1599 109.495 75.862 109.513 79.5213 109.317C85.7803 108.981 93.2844 109.741 100.5 110.5C110 111.5 131 113.5 132.5 108C134 102.5 132.5 99.5001 131 93.5001C129.5 87.5001 129.5 80.5001 131 67.0001C132.5 53.5001 132.5 42.5001 120 35.5001C107.5 28.5001 100.5 42.5 89.5002 36C78.5002 29.5 64.5002 33 60.5002 33C56.5002 33 49.5002 36.5 43.5002 34.5C37.5002 32.5 33.0002 34 25.0002 34.5C17.0002 35 20.0002 48.5 16.5002 53C13.0002 57.5 17.5002 75 12.5003 79C7.50039 83 18.0003 92.5 12.5003 97C7.00031 101.5 11.0003 107.5 14.5003 109C18.0003 110.5 21.5002 110 30.5003 110C39.2324 110 59.0003 108 62.5003 108Z" fill="#C64500"/>
<path d="M73.5085 76.1834C67.0259 75.7204 60.389 79.0774 57.8808 80.8138C53.2504 84.2867 50.3564 88.9171 46.3048 96.4415C42.2531 103.966 46.8836 107.439 50.9352 106.281C54.9868 105.124 63.0901 105.124 68.2993 106.281C73.5085 107.439 79.2965 107.439 84.5058 106.281C89.715 105.124 90.2938 106.281 95.503 106.86C100.712 107.439 101.87 106.281 101.291 99.3355C100.712 92.3899 96.6606 87.7595 91.4514 83.129C86.2422 78.4986 81.6118 76.7622 73.5085 76.1834Z" fill="black" stroke="black" stroke-width="1.15761"/>
<path d="M102.952 39.4976C102.663 39.5315 102.265 40.029 102.054 40.2403C101.549 40.7455 101.093 41.2517 100.659 41.8293C100.271 42.3467 99.9625 43.0141 99.5151 43.4788C99.188 43.8185 99.0532 44.2796 98.7551 44.6274C98.02 45.4849 97.2998 46.7036 96.9674 47.7838C96.5493 49.1426 95.871 50.4195 95.4734 51.778C95.3205 52.3005 94.9657 52.8088 94.8689 53.3411C94.7305 54.1022 94.5852 54.9251 94.3594 55.6642C93.7542 57.6447 93.3796 59.7019 92.5976 61.6317C91.9669 63.1882 91.3961 64.7742 90.6804 66.2951C90.1337 67.4569 89.5345 68.6309 89.1216 69.8488C88.8077 70.775 88.5732 71.5685 88.5732 72.5303" stroke="black" stroke-width="3.47282" stroke-linecap="round"/>
<path d="M117.875 38.4094C117.254 39.1342 116.664 39.8728 116.014 40.5771C115.536 41.095 115.218 41.7595 114.878 42.3777C114.598 42.888 114.363 43.4646 114.144 44.0056C113.776 44.9145 113.219 45.7283 112.84 46.6309C112.57 47.2746 112.233 47.8286 111.921 48.4531C111.319 49.6567 110.456 50.6093 109.684 51.6959C109.361 52.1499 109.128 52.6904 108.907 53.1986C108.584 53.9382 108.165 54.6503 107.771 55.3533C107.175 56.4162 106.589 57.4833 106.022 58.5616C105.791 59.0018 105.461 59.1768 105.163 59.5331C104.492 60.3339 103.863 61.2079 103.298 62.0851C102.51 63.3063 101.66 64.3934 100.685 65.4661C100.127 66.08 99.5994 66.702 99.0486 67.3228C98.6162 67.8101 98.0982 68.1985 97.7057 68.7218C97.329 69.2241 96.9939 69.7557 96.6305 70.2677C95.8426 71.3779 95.0777 72.5259 94.3679 73.6875C94.1302 74.0764 94.0658 74.5455 93.9533 74.9829C93.8339 75.4473 93.4697 75.9219 93.4697 76.4165" stroke="black" stroke-width="3.47282" stroke-linecap="round"/>
<path d="M97.2783 80.9246C98.2392 79.9637 99.276 79.0905 100.215 78.1092C100.718 77.5832 101.096 76.9219 101.553 76.3561C102.14 75.63 102.89 75.0314 103.496 74.318C104.373 73.2873 105.366 72.3475 106.294 71.3645C106.733 70.9002 107.108 70.3756 107.521 69.8878C108.22 69.061 109.224 68.513 110.016 67.7806C110.9 66.9637 111.853 66.2959 112.78 65.5352C113.713 64.77 114.492 63.8542 115.388 63.048C116.114 62.3951 116.906 61.7937 117.525 61.0315C117.943 60.5175 118.465 60.1666 118.998 59.7793C119.579 59.3567 120.179 58.703 120.639 58.1514C121.215 57.46 121.877 56.82 122.461 56.1263C123.171 55.2827 123.729 54.3755 124.249 53.4103C124.754 52.471 125.401 51.6675 126.032 50.8151C126.212 50.5724 126.532 50.3208 126.658 50.0681" stroke="black" stroke-width="3.47282" stroke-linecap="round"/>
<path d="M101.554 87.3756C101.676 86.7662 102.627 86.1329 103.151 85.86C103.65 85.6007 104.253 85.3539 104.663 84.9662C105.783 83.9051 107.254 83.1174 108.549 82.2847C109.113 81.9223 109.609 81.4332 110.181 81.0627C110.842 80.6344 111.45 80.1278 112.124 79.7155C112.862 79.2643 113.547 78.5797 114.378 78.2819C116.315 77.5876 117.829 76.2299 119.27 74.7886C120.424 73.6351 121.512 72.3381 122.768 71.291C123.409 70.7569 124.048 70.3416 124.759 69.905C125.008 69.7518 125.427 69.3436 125.726 69.3436" stroke="black" stroke-width="3.47282" stroke-linecap="round"/>
<path d="M103.341 92.9717C103.882 92.5209 104.633 92.1911 105.245 91.849C106.025 91.4133 106.802 90.9977 107.659 90.735C108.277 90.5452 108.894 90.292 109.49 90.0484C110.421 89.6675 111.431 89.5598 112.396 89.2798C113.157 89.0586 113.972 88.876 114.749 88.7141C116.98 88.2493 118.816 86.4682 120.561 85.1259C121.637 84.2986 122.905 83.7337 124.05 83.023C124.38 82.8179 124.85 82.3235 125.259 82.3235" stroke="black" stroke-width="3.47282" stroke-linecap="round"/>
<path d="M104.662 99.5007C105.828 99.5007 107.007 99.5905 108.117 99.1725C108.977 98.8484 109.76 98.3408 110.608 97.985C112.214 97.3116 113.771 96.4441 115.466 96.0031C116.067 95.8467 116.738 95.552 117.366 95.5367C118.742 95.5032 120.198 95.7051 121.558 95.4935C122.372 95.3669 123.17 95.0642 123.942 94.794C124.48 94.6056 125.266 94.4438 125.725 94.1377" stroke="black" stroke-width="3.47282" stroke-linecap="round"/>
<path d="M106 106.316C106.578 106.345 107.194 106.156 107.755 106.034C108.502 105.871 109.268 105.8 110.027 105.708C110.827 105.611 111.653 105.5 112.458 105.444C114.681 105.29 116.933 105.62 119.158 105.657C120.614 105.681 122.072 105.923 123.52 106.093C124.223 106.175 124.927 106.257 125.63 106.339C125.848 106.364 126.752 106.606 126.883 106.407" stroke="black" stroke-width="3.47282" stroke-linecap="round"/>
<path d="M17 105.657C18.5822 105.657 20.1519 105.19 21.7369 105.19C22.4378 105.19 23.1388 105.19 23.8397 105.19C25.6408 105.19 27.4726 105.545 29.2761 105.302C31.7166 104.974 34.0653 104.917 36.5088 105.112C37.6574 105.204 38.8796 105.579 40.0063 105.579" stroke="black" stroke-width="3.47282" stroke-linecap="round"/>
<path d="M21.3418 94.4485C22.6658 94.4485 24.0096 94.3771 25.3316 94.4572C26.8138 94.547 28.2725 95.0121 29.7317 95.2647C30.7695 95.4443 31.7671 95.5097 32.8147 95.6144C33.546 95.6875 34.3792 95.7404 35.0687 96.0074C35.5172 96.1809 35.9852 96.3032 36.4375 96.4694C36.9247 96.6483 37.3859 96.9101 37.897 97.0134C38.3279 97.1006 38.7569 97.117 39.1838 97.2293C39.4002 97.2863 39.5965 97.3865 39.8229 97.4021C40.1005 97.4212 40.3446 97.6352 40.6174 97.6352C40.7963 97.6352 41.0317 97.7386 41.1614 97.8684" stroke="black" stroke-width="3.47282" stroke-linecap="round"/>
<path d="M19.3213 81.08C20.296 81.1136 21.1468 81.6632 22.0762 81.8917C23.2221 82.1735 24.303 82.6081 25.4183 82.9799C26.6757 83.399 27.9554 83.7601 29.2225 84.1457C29.6837 84.2861 30.0488 84.4237 30.4013 84.7762C30.9289 85.3037 31.6154 85.709 32.271 86.0586C32.7884 86.3346 33.2768 86.6915 33.8212 86.9093C35.0015 87.3814 36.1254 87.6904 37.3533 87.9974C38.2347 88.2178 39.0714 88.4228 39.8577 88.8869C40.4578 89.2411 41.0065 89.6815 41.6281 89.9578C41.9708 90.1101 42.2634 90.096 42.6385 90.096" stroke="black" stroke-width="3.47282" stroke-linecap="round"/>
<path d="M20.9531 67.8668C21.2624 68.1466 21.6383 68.3591 21.9981 68.5663C22.6967 68.9688 23.3253 69.4113 23.98 69.879C24.6211 70.3369 25.4508 70.694 26.0225 71.2262C26.9857 72.123 28.3034 72.5962 29.356 73.3593C29.9501 73.7901 30.4868 74.2893 31.1263 74.6547C31.7632 75.0187 32.3745 75.4292 32.9572 75.8724C34.5468 77.0814 36.2254 78.2748 38.0783 79.0505C38.6756 79.3005 39.2568 79.5528 39.8401 79.8363C40.2973 80.0586 40.9568 80.1741 41.3514 80.497C42.1525 81.1525 42.9301 81.772 43.5536 82.6171C43.9715 83.1837 44.4704 83.7545 45.0519 84.1543C45.3122 84.3333 46.058 84.5756 46.058 84.9661" stroke="black" stroke-width="3.47282" stroke-linecap="round"/>
<path d="M21.9639 52.8661C21.9922 53.093 22.5746 53.356 22.7238 53.5052C23.0825 53.8638 23.3271 54.3676 23.6133 54.7833C24.2132 55.6545 24.6969 56.454 25.4615 57.2186C25.9968 57.754 26.5149 58.2848 27.1757 58.6565C28.0605 59.1542 28.7715 59.8934 29.5808 60.5003C29.9649 60.7883 30.3753 61.0527 30.7467 61.3553C31.3142 61.8177 31.7997 62.3742 32.3789 62.8148C33.5266 63.6877 34.5085 64.5813 35.4404 65.6776C35.8356 66.1426 36.2543 66.6827 36.4249 67.2796C36.5459 67.7033 36.9764 67.9713 37.2755 68.2555C38.0737 69.0137 39.2268 69.64 39.767 70.6304C40.4132 71.815 41.7391 72.4849 42.7508 73.3248C43.4299 73.8886 44.0726 74.6869 44.8148 75.1556C45.1574 75.3721 45.3384 75.7855 45.592 76.0883C45.8356 76.3793 46.303 76.7424 46.637 76.9174C47.291 77.26 47.8204 77.6136 48.3944 78.0919C49.049 78.6374 49.7278 79.3782 50.4886 79.7586" stroke="black" stroke-width="3.47282" stroke-linecap="round"/>
<path d="M55.2302 76.1056C55.0679 75.9252 54.9687 75.6885 54.8416 75.4838C54.4285 74.8186 53.9202 74.2196 53.4426 73.6011C52.4664 72.3373 51.2952 71.2615 50.2213 70.082C49.2295 68.9926 48.5976 67.6485 47.6348 66.5326C47.3465 66.1984 47.2689 65.9397 47.0692 65.5783C46.4462 64.4511 45.5489 63.3937 44.7547 62.383C44.2243 61.7079 43.6962 60.9962 43.088 60.388C42.5806 59.8806 42.0795 59.3137 41.5335 58.8508C40.6295 58.0844 40.2242 56.9265 39.6811 55.8973C38.991 54.5897 37.9595 53.5835 37.0471 52.4429C36.8731 52.2254 36.7597 52.0144 36.6455 51.7607C36.2913 50.9736 35.8552 50.2702 35.3674 49.5585C34.2791 47.9707 33.3151 46.3687 32.0684 44.8993C31.5377 44.2739 31.0507 43.668 30.4405 43.1117C29.9094 42.6274 29.3081 42.1779 28.804 41.6738C28.5529 41.4227 28.2163 40.8433 28.1045 40.5079" stroke="black" stroke-width="4.63043" stroke-linecap="round"/>
<path d="M60.9036 73.2298C60.9036 73.033 60.8809 72.8598 60.8258 72.6685C60.5278 71.6332 60.0617 70.6149 59.6513 69.6199C59.2016 68.5292 58.5171 67.5544 58.0407 66.4764C57.7166 65.743 57.5305 64.9721 57.2505 64.2311C56.7461 62.8957 56.3213 61.5651 55.9897 60.1721C55.8522 59.5948 55.8134 58.9824 55.6486 58.4147C55.4835 57.8462 55.1221 57.3155 54.7288 56.8818C54.3781 56.4952 54.1549 56.1328 53.8739 55.7073C53.3885 54.9728 52.7043 54.377 52.1639 53.6822C51.8762 53.3122 51.7206 52.8839 51.4601 52.5077C50.4818 51.0945 50.2651 49.312 49.4436 47.8183C49.1871 47.3519 49.1416 46.7796 48.8563 46.32C48.3703 45.5369 47.7596 44.8303 47.3062 44.0142C46.7309 42.9787 46.3516 41.8589 45.7819 40.8232C45.4201 40.1654 45.2811 39.5755 45.0479 38.8757" stroke="black" stroke-width="3.47282" stroke-linecap="round"/>
<path d="M68.2879 71.7531C68.2879 70.4468 68.0508 69.1397 67.9942 67.8323C67.9566 66.9628 67.9705 66.0193 67.7783 65.1681C67.4268 63.6113 67.5249 61.997 66.8888 60.5004C66.5389 59.677 66.0701 58.9084 65.6107 58.1427C65.0509 57.2098 64.8839 56.1464 64.4405 55.1633C64.0401 54.2755 63.6702 53.3748 63.2703 52.4861C63.0772 52.0569 62.8781 51.6481 62.7694 51.1864C62.666 50.7467 62.6097 50.3109 62.4974 49.8694C62.3539 49.3048 62.0845 48.6313 62.0699 48.0472C62.0574 47.5458 61.9201 47.0714 61.9145 46.5705C61.9069 45.8999 61.9145 45.2289 61.9145 44.5583C61.9145 42.603 62.3031 40.6703 62.3031 38.7203" stroke="black" stroke-width="3.47282" stroke-linecap="round"/>
<path d="M74.2727 71.209C74.2727 70.2107 73.9299 69.2408 73.8798 68.2382C73.8421 67.4848 73.8063 66.7441 73.8063 65.9886C73.8063 64.5995 74.0084 63.2784 74.1561 61.8994C74.2673 60.862 74.5059 59.903 74.5059 58.8509C74.5059 57.8133 74.582 56.76 74.3677 55.7419C74.202 54.9548 74.322 54.1261 74.1777 53.3325C74.0826 52.8094 73.9143 52.3019 73.8236 51.778C73.7214 51.1876 73.7286 50.6147 73.7286 50.0162C73.7286 48.8196 73.7203 47.6372 73.8841 46.4496C74.1597 44.4513 74.9291 42.5542 75.2054 40.5512C75.4113 39.0586 75.7393 37.3787 75.0499 36" stroke="black" stroke-width="3.47282" stroke-linecap="round"/>
<path d="M87.874 39.5753C87.8496 40.0141 87.4397 40.4341 87.2522 40.8189C87.0662 41.2007 86.9581 41.7255 86.8247 42.1402C86.6135 42.7974 86.2949 43.4127 86.0691 44.066C85.9038 44.5441 85.7116 45.0765 85.4948 45.5342C84.277 48.1051 84.1837 51.1012 83.9058 53.8809C83.7557 55.3819 83.3832 56.8759 83.1501 58.3673C83.051 59.0015 82.9626 59.6534 82.7831 60.2715C82.5606 61.0379 82.5186 61.8011 82.3556 62.5817C81.9986 64.2914 81.4562 65.9371 81.1552 67.6596C80.9651 68.7474 80.4902 69.9464 80.4902 71.0536" stroke="black" stroke-width="3.47282" stroke-linecap="round"/>
</svg>
